<?xml version="1.0" encoding="UTF-8" standalone="no"?>
<!-- Created with Inkscape (http://www.inkscape.org/) -->

<svg
   width="192.69409"
   height="105.61749"
   viewBox="0 0 192.69409 105.61749"
   version="1.1"
   id="svg1"
   xml:space="preserve"
   sodipodi:docname="logo.svg"
   inkscape:version="1.4 (e7c3feb100, 2024-10-09)"
   xmlns:inkscape="http://www.inkscape.org/namespaces/inkscape"
   xmlns:sodipodi="http://sodipodi.sourceforge.net/DTD/sodipodi-0.dtd"
   xmlns="http://www.w3.org/2000/svg"
   xmlns:svg="http://www.w3.org/2000/svg"><sodipodi:namedview
     id="namedview1"
     pagecolor="#ffffff"
     bordercolor="#000000"
     borderopacity="0.25"
     inkscape:showpageshadow="2"
     inkscape:pageopacity="0.0"
     inkscape:pagecheckerboard="0"
     inkscape:deskcolor="#d1d1d1"
     inkscape:document-units="px"
     inkscape:zoom="1.1159029"
     inkscape:cx="145.17392"
     inkscape:cy="354.86959"
     inkscape:window-width="1920"
     inkscape:window-height="1011"
     inkscape:window-x="0"
     inkscape:window-y="0"
     inkscape:window-maximized="1"
     inkscape:current-layer="layer1"><inkscape:page
       x="0"
       y="0"
       width="192.69409"
       height="105.61749"
       id="page2"
       margin="0"
       bleed="0" /></sodipodi:namedview><defs
     id="defs1" /><g
     inkscape:label="Layer 1"
     inkscape:groupmode="layer"
     id="layer1"
     transform="translate(-10.63567,-566.86109)"><path
       fill="currentColor"
       d="m 167.02323,672.47858 36.30653,-36.30654 -36.30653,-36.30652 -8.62279,8.6228 27.83503,27.83499 -27.68372,27.68373 z m -120.081026,0 8.622801,-8.62281 L 27.729968,636.02079 55.4137,608.33705 46.942204,599.86552 10.63567,636.17204 Z"
       id="path1-6-9-0"
       style="fill:#0d213d;fill-opacity:1;stroke:none;stroke-width:0.683618;stroke-dasharray:none;stroke-opacity:1"
       sodipodi:nodetypes="cccccccccccccc"
       inkscape:export-filename="logo.png"
       inkscape:export-xdpi="96"
       inkscape:export-ydpi="96" /><g
       id="g4"
       style="fill:#09ace9;fill-opacity:1"><path
         fill="currentColor"
         d="m 111.58576,568.80046 -41.014897,33.12281 c -3.470501,2.80269 -3.924053,7.67217 -1.007893,10.82106 l 23.859418,25.76345 a 7.6423586,8.262442 79.302143 0 0 11.612082,0.62939 l 41.01491,-33.1228 c 3.50203,-2.8282 3.95056,-7.64355 1.00789,-10.82107 l -23.85941,-25.76346 a 7.6423586,8.262442 79.302143 0 0 -11.6121,-0.62938 m 29.1615,31.48869 -41.014877,33.12281 -19.432162,-20.98291 29.335439,-7.02892 11.67946,-26.09391 z m -35.59187,0.27314 -29.28243,7.08619 41.0149,-33.12282 z M 87.112415,643.6036 c 0.450681,0.48666 0.969496,0.86821 1.483356,1.30386 L 75.81805,655.22648 c -1.741556,1.40644 -4.347953,1.25974 -5.806043,-0.31473 -1.458162,-1.57434 -1.237704,-4.00396 0.503851,-5.41041 l 12.619984,-10.19167 z m -31.494939,-22.09896 6.467727,-5.2232 c 0.387508,0.53767 0.717013,1.0721 1.1677,1.55875 l 3.976569,4.29392 -6.309898,5.09574 c -1.735238,1.40135 -4.347957,1.25973 -5.806026,-0.3147 -1.458088,-1.57443 -1.23131,-4.00916 0.503928,-5.41051 m 6.945244,19.40888 c -1.458069,-1.57444 -1.231296,-4.00917 0.503966,-5.41055 l 9.464979,-7.64372 5.302082,5.72521 -9.464981,7.64372 c -1.735257,1.40139 -4.347976,1.25976 -5.806046,-0.31466"
         id="path1-5"
         style="fill:#09ace9;fill-opacity:1;stroke-width:3.97317" /><path
         fill="currentColor"
         d="m 120.03028,631.87821 -12.72498,11.76942 c -1.07673,0.99587 -1.14289,2.69164 -0.14701,3.76838 l 8.14806,8.80959 a 2.6666667,2.6666667 0 0 0 3.76838,0.14701 l 12.72498,-11.76942 c 1.08651,-1.00493 1.15194,-2.68185 0.147,-3.76838 l -8.14805,-8.80959 a 2.6666667,2.6666667 0 0 0 -3.76838,-0.14701 m 9.95874,10.76729 -12.72497,11.76942 -6.63614,-7.17493 9.37727,-2.62516 3.3477,-9.14426 z m -11.51387,0.31507 -9.35917,2.64475 12.72498,-11.76942 z m -5.12648,15.07571 c 0.15391,0.16641 0.32812,0.29586 0.50164,0.44413 l -3.96433,3.66663 c -0.54032,0.49975 -1.38624,0.46486 -1.88419,-0.0735 -0.49795,-0.53834 -0.46683,-1.38441 0.0735,-1.88415 l 3.91538,-3.62137 z m -10.55843,-7.48834 2.00664,-1.85595 c 0.13432,0.18453 0.24979,0.3683 0.4037,0.53471 l 1.35801,1.46827 -1.95767,1.81065 c -0.53836,0.49794 -1.38626,0.46486 -1.88419,-0.0735 -0.49793,-0.53837 -0.46486,-1.38625 0.0735,-1.88418 m 2.56901,6.70491 c -0.49794,-0.53837 -0.46487,-1.38625 0.0735,-1.8842 l 2.93654,-2.71602 1.81067,1.95769 -2.93653,2.71602 c -0.53837,0.49795 -1.38625,0.46487 -1.88419,-0.0735"
         id="path1-5-0"
         style="fill:#09ace9;fill-opacity:1;stroke-width:1.33333" /><path
         fill="currentColor"
         d="m 153.39502,630.77435 -12.72498,11.76942 c -1.07673,0.99587 -1.14289,2.69164 -0.14701,3.76838 l 8.14806,8.80959 a 2.6666667,2.6666667 0 0 0 3.76838,0.14701 l 12.72498,-11.76942 c 1.08651,-1.00493 1.15194,-2.68185 0.147,-3.76838 l -8.14805,-8.80959 a 2.6666667,2.6666667 0 0 0 -3.76838,-0.14701 m 9.95874,10.76729 -12.72497,11.76942 -6.63614,-7.17493 9.37727,-2.62516 3.3477,-9.14426 z m -11.51387,0.31507 -9.35917,2.64475 12.72498,-11.76942 z m -5.12648,15.07571 c 0.15391,0.16641 0.32812,0.29586 0.50164,0.44413 l -3.96433,3.66663 c -0.54032,0.49975 -1.38624,0.46486 -1.88419,-0.0735 -0.49795,-0.53834 -0.46683,-1.38441 0.0735,-1.88415 l 3.91538,-3.62137 z m -10.55843,-7.48834 2.00664,-1.85595 c 0.13432,0.18453 0.24979,0.3683 0.4037,0.53471 l 1.35801,1.46827 -1.95767,1.81065 c -0.53836,0.49794 -1.38626,0.46486 -1.88419,-0.0735 -0.49793,-0.53837 -0.46486,-1.38625 0.0735,-1.88418 m 2.56901,6.70491 c -0.49794,-0.53837 -0.46487,-1.38625 0.0735,-1.8842 l 2.93654,-2.71602 1.81067,1.95769 -2.93653,2.71602 c -0.53837,0.49795 -1.38625,0.46487 -1.88419,-0.0735"
         id="path1-5-0-9"
         style="fill:#09ace9;fill-opacity:1;stroke-width:1.33333" /><path
         fill="currentColor"
         d="m 148.0182,608.37096 -12.72498,11.76942 c -1.07673,0.99587 -1.14289,2.69164 -0.14701,3.76838 l 8.14806,8.80959 a 2.6666667,2.6666667 0 0 0 3.76838,0.14701 l 12.72498,-11.76942 c 1.08651,-1.00493 1.15194,-2.68185 0.147,-3.76838 l -8.14805,-8.80959 a 2.6666667,2.6666667 0 0 0 -3.76838,-0.14701 m 9.95874,10.76729 -12.72497,11.76942 -6.63614,-7.17493 9.37727,-2.62516 3.3477,-9.14426 z m -11.51387,0.31507 -9.35917,2.64475 12.72498,-11.76942 z m -5.12648,15.07571 c 0.15391,0.16641 0.32812,0.29586 0.50164,0.44413 l -3.96433,3.66663 c -0.54032,0.49975 -1.38624,0.46486 -1.88419,-0.0735 -0.49795,-0.53834 -0.46683,-1.38441 0.0735,-1.88415 l 3.91538,-3.62137 z m -10.55843,-7.48834 2.00664,-1.85595 c 0.13432,0.18453 0.24979,0.3683 0.4037,0.53471 l 1.35801,1.46827 -1.95767,1.81065 c -0.53836,0.49794 -1.38626,0.46486 -1.88419,-0.0735 -0.49793,-0.53837 -0.46486,-1.38625 0.0735,-1.88418 m 2.56901,6.70491 c -0.49794,-0.53837 -0.46487,-1.38625 0.0735,-1.8842 l 2.93654,-2.71602 1.81067,1.95769 -2.93653,2.71602 c -0.53837,0.49795 -1.38625,0.46487 -1.88419,-0.0735"
         id="path1-5-0-7"
         style="fill:#09ace9;fill-opacity:1;stroke-width:1.33333" /></g></g></svg>
